<svg width="16" height="16" viewBox="0 0 16 16" fill="none" xmlns="http://www.w3.org/2000/svg">
<path d="M15 0H0.625C0.279297 0 0 0.279297 0 0.625V15C0 15.3457 0.279297 15.625 0.625 15.625H15C15.3457 15.625 15.625 15.3457 15.625 15V0.625C15.625 0.279297 15.3457 0 15 0ZM13.1953 4.56055H11.9473C10.9688 4.56055 10.7793 5.02539 10.7793 5.70898V7.21484H13.1152L12.8105 9.57227H10.7793V15.625H8.34375V9.57422H6.30664V7.21484H8.34375V5.47656C8.34375 3.45898 9.57617 2.35938 11.377 2.35938C12.2402 2.35938 12.9805 2.42383 13.1973 2.45313V4.56055H13.1953Z" fill="white"/>
</svg>
