<svg width="16" height="16" viewBox="0 0 16 16" fill="none" xmlns="http://www.w3.org/2000/svg">
<path d="M7.80527 5.20371C6.37167 5.20371 5.20175 6.37363 5.20175 7.80722C5.20175 9.24082 6.37167 10.4107 7.80527 10.4107C9.23886 10.4107 10.4088 9.24082 10.4088 7.80722C10.4088 6.37363 9.23886 5.20371 7.80527 5.20371ZM15.6139 7.80722C15.6139 6.7291 15.6236 5.66074 15.5631 4.58457C15.5025 3.33457 15.2174 2.22519 14.3033 1.31113C13.3873 0.395112 12.2799 0.111909 11.0299 0.0513622C9.95175 -0.00918471 8.88339 0.000580946 7.80722 0.000580946C6.7291 0.000580946 5.66074 -0.00918471 4.58457 0.0513622C3.33457 0.111909 2.22519 0.397065 1.31113 1.31113C0.395112 2.22714 0.111909 3.33457 0.0513622 4.58457C-0.00918471 5.66269 0.000580946 6.73105 0.000580946 7.80722C0.000580946 8.88339 -0.00918471 9.95371 0.0513622 11.0299C0.111909 12.2799 0.397065 13.3893 1.31113 14.3033C2.22714 15.2193 3.33457 15.5025 4.58457 15.5631C5.66269 15.6236 6.73105 15.6139 7.80722 15.6139C8.88534 15.6139 9.9537 15.6236 11.0299 15.5631C12.2799 15.5025 13.3893 15.2174 14.3033 14.3033C15.2193 13.3873 15.5025 12.2799 15.5631 11.0299C15.6256 9.95371 15.6139 8.88535 15.6139 7.80722ZM7.80527 11.8131C5.58847 11.8131 3.79941 10.024 3.79941 7.80722C3.79941 5.59043 5.58847 3.80136 7.80527 3.80136C10.0221 3.80136 11.8111 5.59043 11.8111 7.80722C11.8111 10.024 10.0221 11.8131 7.80527 11.8131ZM11.9752 4.57285C11.4576 4.57285 11.0396 4.15488 11.0396 3.6373C11.0396 3.11972 11.4576 2.70175 11.9752 2.70175C12.4928 2.70175 12.9107 3.11972 12.9107 3.6373C12.9109 3.7602 12.8868 3.88193 12.8398 3.9955C12.7929 4.10908 12.724 4.21227 12.6371 4.29918C12.5502 4.38608 12.447 4.45499 12.3334 4.50195C12.2198 4.54891 12.0981 4.573 11.9752 4.57285Z" fill="white"/>
</svg>
