<svg width="11" height="10" viewBox="0 0 11 10" fill="none" xmlns="http://www.w3.org/2000/svg">
<path d="M7.3338 7.10693L8.28101 6.24549C8.40859 6.1309 8.57 6.05246 8.74564 6.0197C8.92129 5.98693 9.10362 6.00124 9.2705 6.06089L10.4249 6.48008C10.5935 6.54233 10.7382 6.64859 10.8405 6.78547C10.9428 6.92234 10.9983 7.08371 11 7.24923V9.17209C10.999 9.28469 10.973 9.39594 10.9235 9.49914C10.874 9.60235 10.802 9.69538 10.712 9.77263C10.6219 9.84988 10.5155 9.90975 10.3994 9.94864C10.2832 9.98753 10.1595 10.0046 10.0359 9.99893C1.94656 9.54128 0.314319 3.31119 0.00563143 0.926838C-0.00869808 0.809749 0.00439441 0.691228 0.0440475 0.579072C0.0837007 0.466915 0.149016 0.363666 0.235696 0.276115C0.322376 0.188564 0.428457 0.118697 0.546959 0.0711094C0.665462 0.0235219 0.7937 -0.000707292 0.923238 1.57171e-05H2.96565C3.14791 0.000506351 3.32584 0.0505746 3.47655 0.143781C3.62727 0.236987 3.74387 0.369068 3.81137 0.523036L4.27229 1.57292C4.34006 1.72408 4.35735 1.89006 4.322 2.0501C4.28665 2.21015 4.20024 2.35718 4.07355 2.47282L3.12634 3.33427C3.12634 3.33427 3.67183 6.69159 7.3338 7.10693Z" fill="#8FC423"/>
</svg>
