<svg width="24" height="20" viewBox="0 0 24 20" fill="none" xmlns="http://www.w3.org/2000/svg">
<path d="M12.5 2.91667C12.5 2.3398 12.6711 1.7759 12.9915 1.29625C13.312 0.816611 13.7675 0.442775 14.3005 0.222019C14.8334 0.00126374 15.4199 -0.0564959 15.9857 0.0560442C16.5514 0.168584 17.0711 0.44637 17.4791 0.854273C17.887 1.26218 18.1647 1.78188 18.2773 2.34765C18.3898 2.91343 18.3321 3.49987 18.1113 4.03282C17.8905 4.56578 17.5167 5.0213 17.0371 5.34178C16.5574 5.66227 15.9935 5.83333 15.4167 5.83333C14.644 5.83059 13.9037 5.52241 13.3573 4.97603C12.8109 4.42964 12.5027 3.68937 12.5 2.91667V2.91667ZM5.83333 7.91666C5.83333 7.3398 5.66227 6.77589 5.34178 6.29625C5.0213 5.81661 4.56578 5.44277 4.03283 5.22202C3.49987 5.00126 2.91343 4.9435 2.34765 5.05604C1.78188 5.16858 1.26218 5.44637 0.854273 5.85427C0.44637 6.26217 0.168584 6.78187 0.0560442 7.34765C-0.0564959 7.91343 0.00126374 8.49987 0.222019 9.03282C0.442775 9.56577 0.816611 10.0213 1.29625 10.3418C1.7759 10.6623 2.3398 10.8333 2.91667 10.8333C3.68937 10.8306 4.42964 10.5224 4.97603 9.97602C5.52241 9.42964 5.83059 8.68936 5.83333 7.91666ZM7.91666 5.83333C8.49352 5.83333 9.05743 5.66227 9.53708 5.34178C10.0167 5.0213 10.3906 4.56578 10.6113 4.03282C10.8321 3.49987 10.8898 2.91343 10.7773 2.34765C10.6647 1.78188 10.387 1.26218 9.97906 0.854273C9.57115 0.44637 9.05145 0.168584 8.48568 0.0560442C7.9199 -0.0564959 7.33345 0.00126374 6.8005 0.222019C6.26755 0.442775 5.81203 0.816611 5.49154 1.29625C5.17106 1.7759 5 2.3398 5 2.91667C5.00274 3.68937 5.31092 4.42964 5.8573 4.97603C6.40369 5.52241 7.14396 5.83059 7.91666 5.83333V5.83333ZM17.8229 12.1667C17.3995 11.9339 17.026 11.62 16.724 11.2429C16.4219 10.8658 16.1971 10.4328 16.0625 9.96874C15.7888 9.01416 15.2119 8.17461 14.4188 7.57697C13.6257 6.97932 12.6597 6.65607 11.6667 6.65607C10.6736 6.65607 9.70758 6.97932 8.91452 7.57697C8.12146 8.17461 7.5445 9.01416 7.27083 9.96874C6.99936 10.9031 6.3706 11.6928 5.52083 12.1667C4.70466 12.6072 4.0588 13.3074 3.68555 14.1565C3.31229 15.0055 3.23298 15.9548 3.46017 16.854C3.68736 17.7532 4.20807 18.5509 4.93982 19.1207C5.67158 19.6906 6.57253 20 7.5 20C8.05418 19.9994 8.60282 19.8897 9.11458 19.6771C10.7446 19.0018 12.5755 18.998 14.2083 19.6667C14.7218 19.8867 15.2747 20.0001 15.8333 20C16.7617 20.0023 17.6642 19.6946 18.3978 19.1256C19.1313 18.5565 19.6538 17.7588 19.8823 16.8591C20.1109 15.9593 20.0323 15.0089 19.6593 14.1588C19.2862 13.3087 18.6399 12.6076 17.8229 12.1667V12.1667ZM20.4167 5C19.8398 5 19.2759 5.17106 18.7962 5.49154C18.3166 5.81203 17.9428 6.26755 17.722 6.8005C17.5013 7.33345 17.4435 7.9199 17.556 8.48567C17.6686 9.05145 17.9464 9.57115 18.3543 9.97905C18.7622 10.387 19.2819 10.6647 19.8476 10.7773C20.4134 10.8898 20.9999 10.8321 21.5328 10.6113C22.0658 10.3906 22.5213 10.0167 22.8418 9.53707C23.1623 9.05743 23.3333 8.49352 23.3333 7.91666C23.3306 7.14396 23.0224 6.40369 22.476 5.8573C21.9296 5.31091 21.1894 5.00274 20.4167 5V5Z" fill="#F6B82C"/>
</svg>
