<svg width="12" height="12" viewBox="0 0 12 12" fill="none" xmlns="http://www.w3.org/2000/svg">
<path fill-rule="evenodd" clip-rule="evenodd" d="M3 0C2.20435 0 1.44129 0.316071 0.87868 0.87868C0.316071 1.44129 0 2.20435 0 3V9C0 9.79565 0.316071 10.5587 0.87868 11.1213C1.44129 11.6839 2.20435 12 3 12H9C9.79565 12 10.5587 11.6839 11.1213 11.1213C11.6839 10.5587 12 9.79565 12 9V3C12 2.20435 11.6839 1.44129 11.1213 0.87868C10.5587 0.316071 9.79565 0 9 0H3ZM8.238 5.2104C8.29189 5.15288 8.33393 5.08531 8.36171 5.01154C8.38949 4.93778 8.40247 4.85927 8.39991 4.78048C8.39735 4.7017 8.37929 4.6242 8.34678 4.55239C8.31426 4.48059 8.26792 4.41589 8.2104 4.362C8.15288 4.30811 8.08531 4.26607 8.01155 4.23829C7.93778 4.21051 7.85927 4.19753 7.78048 4.20009C7.7017 4.20265 7.6242 4.22071 7.55239 4.25322C7.48059 4.28574 7.41589 4.33208 7.362 4.3896L5.5122 6.3636L4.5984 5.5518C4.47868 5.45227 4.32495 5.40318 4.1697 5.41489C4.01445 5.4266 3.86983 5.49821 3.76639 5.61457C3.66296 5.73094 3.6088 5.88295 3.61537 6.03851C3.62194 6.19406 3.68872 6.34097 3.8016 6.4482L5.1516 7.6482C5.26841 7.75196 5.42109 7.80607 5.57718 7.79901C5.73326 7.79195 5.88043 7.72428 5.9874 7.6104L8.2374 5.2104H8.238Z" fill="#8FC423"/>
</svg>
