<svg width="23" height="20" viewBox="0 0 23 20" fill="none" xmlns="http://www.w3.org/2000/svg">
<g clip-path="url(#clip0_300_431)">
<path d="M15.9993 14.0565C14.61 12.9466 12.9808 12.5561 11.2423 12.5568C9.50381 12.5575 7.87462 12.951 6.47869 14.0681C6.25422 13.3845 6.03783 12.7168 5.81483 12.052C5.68206 11.6578 5.52435 11.2709 5.40332 10.8731C5.33876 10.6622 5.22286 10.596 5.01234 10.5865C4.31767 10.5553 3.62668 10.4934 2.97309 10.2287C1.79869 9.75378 0.889836 8.93338 0.0851416 7.99226C-0.00288336 7.88898 -0.0263567 7.64388 0.0367279 7.52533C0.107148 7.39296 0.314006 7.2446 0.454113 7.25114C0.90304 7.27151 1.30649 7.14277 1.6916 6.95804C2.1838 6.72094 2.67454 6.47293 3.13374 6.18056C4.12475 5.54999 5.14438 5.41398 6.22855 5.90782C6.2777 5.93037 6.33051 5.94709 6.38259 5.96164C6.39653 5.96528 6.41487 5.95291 6.46842 5.93691C6.42661 5.84745 6.39066 5.76163 6.34738 5.67872C5.87572 4.77323 5.54709 3.83211 5.62338 2.79207C5.707 1.65167 6.23222 0.755633 7.18435 0.119974C7.31712 0.0312431 7.55479 0.0210609 7.71617 0.0683353C7.92523 0.129428 7.98538 0.3418 7.97731 0.559262C7.95457 1.15056 7.99125 1.73312 8.19297 2.30042C8.46732 3.07354 9.18692 3.77392 10.2352 3.72374C10.9379 3.69029 11.6443 3.71065 12.3485 3.71938C13.1649 3.72956 13.7429 3.34627 14.131 2.66334C14.4244 2.14623 14.5154 1.57457 14.522 0.987641C14.5234 0.851636 14.5286 0.714904 14.519 0.579627C14.5044 0.351982 14.5674 0.163612 14.7794 0.0530621C14.9929 -0.0582147 15.1858 0.0152425 15.367 0.143974C16.069 0.642902 16.5487 1.2982 16.7644 2.13023C17.0343 3.16954 16.826 4.15939 16.413 5.12088C16.3037 5.37544 16.1761 5.62199 16.0323 5.92309C16.347 5.81836 16.6038 5.70709 16.873 5.64817C17.6659 5.47508 18.4068 5.61763 19.1117 6.02273C19.7264 6.37547 20.3499 6.71949 20.9947 7.01259C21.2903 7.14714 21.6505 7.13477 21.9725 7.22205C22.1332 7.26569 22.3393 7.35151 22.4039 7.47806C22.4684 7.60461 22.4457 7.86207 22.3525 7.96826C21.3109 9.15376 20.1563 10.1836 18.5102 10.4498C18.1501 10.508 17.784 10.5298 17.4195 10.5574C17.2537 10.5698 17.1708 10.6316 17.115 10.7989C16.7541 11.8797 16.3778 12.9561 16.0001 14.055L15.9993 14.0565Z" fill="#F6B82C"/>
<path d="M11.5232 20.0001C10.0496 19.9673 8.88543 19.7935 7.84601 19.1833C7.41322 18.9295 6.9951 18.6051 6.66794 18.2298C5.85004 17.2931 5.89332 16.069 6.72149 15.1395C7.45429 14.3177 8.41377 13.8908 9.4686 13.6682C11.2438 13.2944 12.9735 13.41 14.6137 14.2435C15.1235 14.5024 15.5665 14.8515 15.9091 15.3133C16.5942 16.2348 16.5656 17.3636 15.8284 18.2458C15.1125 19.1018 14.1471 19.539 13.0864 19.7739C12.4835 19.9077 11.8614 19.9528 11.5232 20.0001ZM13.5801 17.1825V17.1811C13.7532 17.1811 13.9271 17.1912 14.0994 17.1781C14.332 17.1607 14.5117 16.9738 14.5146 16.7505C14.5168 16.5156 14.4024 16.3221 14.1662 16.3017C13.7877 16.269 13.4026 16.2697 13.0233 16.2974C12.7886 16.3141 12.636 16.5483 12.6558 16.7629C12.6771 16.9941 12.8656 17.1701 13.115 17.1818C13.2698 17.1891 13.4253 17.1832 13.5801 17.1832V17.1825ZM8.88397 17.1818C9.05708 17.1818 9.23093 17.1905 9.40331 17.1796C9.63511 17.1643 9.8229 16.9832 9.8273 16.7607C9.83244 16.5308 9.73121 16.325 9.49061 16.3047C9.1033 16.2719 8.70938 16.2712 8.32207 16.3017C8.08661 16.3199 7.95164 16.5483 7.98098 16.7796C8.01179 17.0152 8.15483 17.1556 8.39176 17.1781C8.55461 17.1934 8.71965 17.1811 8.88323 17.1818H8.88397Z" fill="#F6B82C"/>
</g>
<defs>
<clipPath id="clip0_300_431">
<rect width="22.439" height="20" fill="white"/>
</clipPath>
</defs>
</svg>
