<svg width="13" height="16" viewBox="0 0 13 16" fill="none" xmlns="http://www.w3.org/2000/svg">
<path d="M6.22101 16C5.09851 15.0425 4.05805 13.9928 3.11051 12.8619C1.68856 11.1636 7.81087e-07 8.63433 7.81087e-07 6.22413C-0.000615897 4.99322 0.363937 3.7898 1.04752 2.76616C1.73111 1.74252 2.703 0.944677 3.8402 0.473603C4.9774 0.00252992 6.22879 -0.120599 7.43599 0.1198C8.64319 0.360199 9.75194 0.953319 10.6219 1.8241C11.2012 2.40075 11.6603 3.08655 11.9727 3.84181C12.2851 4.59708 12.4446 5.4068 12.442 6.22413C12.442 8.63433 10.7535 11.1636 9.33152 12.8619C8.38397 13.9928 7.34351 15.0425 6.22101 16ZM6.22101 3.55798C5.5139 3.55798 4.83576 3.83888 4.33576 4.33888C3.83576 4.83888 3.55486 5.51702 3.55486 6.22413C3.55486 6.93123 3.83576 7.60938 4.33576 8.10938C4.83576 8.60938 5.5139 8.89028 6.22101 8.89028C6.92812 8.89028 7.60626 8.60938 8.10626 8.10938C8.60626 7.60938 8.88716 6.93123 8.88716 6.22413C8.88716 5.51702 8.60626 4.83888 8.10626 4.33888C7.60626 3.83888 6.92812 3.55798 6.22101 3.55798Z" fill="#344A5F"/>
</svg>
