<svg width="180" height="154" viewBox="0 0 180 154" fill="none" xmlns="http://www.w3.org/2000/svg">
<mask id="path-1-inside-1_77_281" fill="white">
<path d="M96.4286 22.4583C96.4286 18.0165 97.7482 13.6744 100.221 9.98116C102.693 6.2879 106.207 3.40936 110.318 1.70955C114.43 0.00973082 118.954 -0.435019 123.318 0.43154C127.683 1.2981 131.692 3.43705 134.838 6.5779C137.985 9.71875 140.128 13.7204 140.996 18.0769C141.864 22.4334 141.419 26.949 139.716 31.0528C138.013 35.1565 135.129 38.664 131.429 41.1317C127.729 43.5995 123.379 44.9166 118.929 44.9166C112.968 44.8955 107.257 42.5226 103.042 38.3154C98.8271 34.1082 96.4498 28.4081 96.4286 22.4583V22.4583ZM45 60.9583C45 56.5165 43.6804 52.1744 41.2081 48.4811C38.7357 44.7879 35.2217 41.9093 31.1104 40.2095C26.999 38.5097 22.4751 38.065 18.1105 38.9315C13.7459 39.7981 9.73679 41.937 6.59011 45.0779C3.44343 48.2187 1.30051 52.2204 0.432341 56.5769C-0.435826 60.9334 0.00974894 65.449 1.71272 69.5527C3.41569 73.6564 6.29957 77.1639 9.99968 79.6317C13.6998 82.0995 18.0499 83.4166 22.5 83.4166C28.4609 83.3955 34.1715 81.0226 38.3865 76.8154C42.6015 72.6082 44.9788 66.9081 45 60.9583ZM61.0714 44.9166C65.5215 44.9166 69.8717 43.5995 73.5718 41.1317C77.2719 38.664 80.1558 35.1565 81.8587 31.0528C83.5617 26.949 84.0073 22.4334 83.1391 18.0769C82.2709 13.7204 80.128 9.71875 76.9813 6.5779C73.8347 3.43705 69.8255 1.2981 65.461 0.43154C61.0964 -0.435019 56.5724 0.00973082 52.4611 1.70955C48.3497 3.40936 44.8357 6.2879 42.3634 9.98116C39.891 13.6744 38.5714 18.0165 38.5714 22.4583C38.5926 28.4081 40.9699 34.1082 45.1849 38.3154C49.3999 42.5226 55.1106 44.8955 61.0714 44.9166V44.9166ZM137.491 93.6833C134.224 91.8913 131.344 89.4743 129.013 86.5703C126.683 83.6664 124.949 80.3325 123.911 76.7593C121.8 69.4091 117.349 62.9445 111.231 58.3426C105.113 53.7408 97.6606 51.2518 90 51.2518C82.3395 51.2518 74.8871 53.7408 68.7692 58.3426C62.6513 62.9445 58.2005 69.4091 56.0893 76.7593C53.9951 83.9537 49.1446 90.0344 42.5893 93.6833C36.2931 97.0753 31.3108 102.467 28.4314 109.005C25.552 115.542 24.9401 122.852 26.6928 129.776C28.4454 136.7 32.4623 142.842 38.1072 147.23C43.7522 151.618 50.7024 154 57.8572 154C62.1323 153.996 66.3646 153.151 70.3125 151.513C82.8873 146.314 97.0112 146.285 109.607 151.433C113.568 153.127 117.833 154 122.143 154C129.304 154.018 136.267 151.648 141.926 147.267C147.584 142.885 151.615 136.743 153.378 129.815C155.141 122.886 154.535 115.569 151.657 109.023C148.779 102.477 143.793 97.0785 137.491 93.6833V93.6833ZM157.5 38.5C153.05 38.5 148.7 39.8171 145 42.2849C141.3 44.7526 138.416 48.2602 136.713 52.3639C135.01 56.4676 134.564 60.9832 135.432 65.3397C136.301 69.6962 138.443 73.6979 141.59 76.8387C144.737 79.9796 148.746 82.1185 153.11 82.9851C157.475 83.8516 161.999 83.4069 166.11 81.7071C170.222 80.0073 173.736 77.1287 176.208 73.4355C178.68 69.7422 180 65.4001 180 60.9583C179.979 55.0085 177.602 49.3084 173.387 45.1012C169.172 40.894 163.461 38.5211 157.5 38.5V38.5Z"/>
</mask>
<path d="M96.4286 22.4583C96.4286 18.0165 97.7482 13.6744 100.221 9.98116C102.693 6.2879 106.207 3.40936 110.318 1.70955C114.43 0.00973082 118.954 -0.435019 123.318 0.43154C127.683 1.2981 131.692 3.43705 134.838 6.5779C137.985 9.71875 140.128 13.7204 140.996 18.0769C141.864 22.4334 141.419 26.949 139.716 31.0528C138.013 35.1565 135.129 38.664 131.429 41.1317C127.729 43.5995 123.379 44.9166 118.929 44.9166C112.968 44.8955 107.257 42.5226 103.042 38.3154C98.8271 34.1082 96.4498 28.4081 96.4286 22.4583V22.4583ZM45 60.9583C45 56.5165 43.6804 52.1744 41.2081 48.4811C38.7357 44.7879 35.2217 41.9093 31.1104 40.2095C26.999 38.5097 22.4751 38.065 18.1105 38.9315C13.7459 39.7981 9.73679 41.937 6.59011 45.0779C3.44343 48.2187 1.30051 52.2204 0.432341 56.5769C-0.435826 60.9334 0.00974894 65.449 1.71272 69.5527C3.41569 73.6564 6.29957 77.1639 9.99968 79.6317C13.6998 82.0995 18.0499 83.4166 22.5 83.4166C28.4609 83.3955 34.1715 81.0226 38.3865 76.8154C42.6015 72.6082 44.9788 66.9081 45 60.9583ZM61.0714 44.9166C65.5215 44.9166 69.8717 43.5995 73.5718 41.1317C77.2719 38.664 80.1558 35.1565 81.8587 31.0528C83.5617 26.949 84.0073 22.4334 83.1391 18.0769C82.2709 13.7204 80.128 9.71875 76.9813 6.5779C73.8347 3.43705 69.8255 1.2981 65.461 0.43154C61.0964 -0.435019 56.5724 0.00973082 52.4611 1.70955C48.3497 3.40936 44.8357 6.2879 42.3634 9.98116C39.891 13.6744 38.5714 18.0165 38.5714 22.4583C38.5926 28.4081 40.9699 34.1082 45.1849 38.3154C49.3999 42.5226 55.1106 44.8955 61.0714 44.9166V44.9166ZM137.491 93.6833C134.224 91.8913 131.344 89.4743 129.013 86.5703C126.683 83.6664 124.949 80.3325 123.911 76.7593C121.8 69.4091 117.349 62.9445 111.231 58.3426C105.113 53.7408 97.6606 51.2518 90 51.2518C82.3395 51.2518 74.8871 53.7408 68.7692 58.3426C62.6513 62.9445 58.2005 69.4091 56.0893 76.7593C53.9951 83.9537 49.1446 90.0344 42.5893 93.6833C36.2931 97.0753 31.3108 102.467 28.4314 109.005C25.552 115.542 24.9401 122.852 26.6928 129.776C28.4454 136.7 32.4623 142.842 38.1072 147.23C43.7522 151.618 50.7024 154 57.8572 154C62.1323 153.996 66.3646 153.151 70.3125 151.513C82.8873 146.314 97.0112 146.285 109.607 151.433C113.568 153.127 117.833 154 122.143 154C129.304 154.018 136.267 151.648 141.926 147.267C147.584 142.885 151.615 136.743 153.378 129.815C155.141 122.886 154.535 115.569 151.657 109.023C148.779 102.477 143.793 97.0785 137.491 93.6833V93.6833ZM157.5 38.5C153.05 38.5 148.7 39.8171 145 42.2849C141.3 44.7526 138.416 48.2602 136.713 52.3639C135.01 56.4676 134.564 60.9832 135.432 65.3397C136.301 69.6962 138.443 73.6979 141.59 76.8387C144.737 79.9796 148.746 82.1185 153.11 82.9851C157.475 83.8516 161.999 83.4069 166.11 81.7071C170.222 80.0073 173.736 77.1287 176.208 73.4355C178.68 69.7422 180 65.4001 180 60.9583C179.979 55.0085 177.602 49.3084 173.387 45.1012C169.172 40.894 163.461 38.5211 157.5 38.5V38.5Z" stroke="white" stroke-width="20" mask="url(#path-1-inside-1_77_281)"/>
</svg>
