<svg width="180" height="154" viewBox="0 0 180 154" fill="none" xmlns="http://www.w3.org/2000/svg">
<path d="M119.107 78.1473L119.105 78.1396C117.294 71.8348 113.476 66.2879 108.225 62.3384C102.974 58.3888 96.5771 56.2518 90 56.2518C83.4229 56.2518 77.0256 58.3888 71.7748 62.3384C66.5242 66.2879 62.7059 71.8348 60.895 78.1396L60.8925 78.1482L60.89 78.1568C58.4275 86.6165 52.7247 93.764 45.0211 98.0521L44.991 98.0688L44.9608 98.0851C39.6433 100.95 35.4374 105.502 33.0072 111.02C30.5771 116.538 30.0609 122.706 31.5399 128.549C33.0189 134.392 36.4092 139.577 41.1758 143.282C45.9413 146.986 51.8098 148.999 57.8522 149L119.107 78.1473ZM119.107 78.1473L119.109 78.1549M119.107 78.1473L119.109 78.1549M119.109 78.1549C120.332 82.36 122.372 86.283 125.114 89.6996C127.855 93.1162 131.244 95.9593 135.086 98.067L137.491 93.6833L135.12 98.0851C140.442 100.953 144.651 105.511 147.08 111.036C149.509 116.56 150.02 122.735 148.532 128.582C147.045 134.428 143.643 139.614 138.865 143.313C134.086 147.013 128.205 149.015 122.156 149H122.142C118.508 149 114.913 148.264 111.573 146.836L111.536 146.82L111.499 146.805C97.6839 141.158 82.1936 141.19 68.4019 146.893L68.397 146.895M119.109 78.1549L68.397 146.895M68.397 146.895C65.0551 148.281 61.472 148.996 57.8525 149L68.397 146.895ZM101.429 22.4492C101.43 19.0015 102.455 15.6308 104.375 12.7626C106.297 9.89169 109.03 7.65271 112.229 6.3302C115.427 5.00764 118.948 4.66146 122.344 5.33581C125.741 6.01016 128.859 7.67442 131.306 10.1167C133.753 12.5589 135.418 15.6693 136.093 19.0541C136.767 22.4389 136.421 25.9474 135.098 29.1363C133.774 32.3253 131.533 35.0526 128.655 36.972C125.779 38.8899 122.398 39.9149 118.938 39.9166C114.297 39.8979 109.853 38.0494 106.574 34.7766C103.296 31.5041 101.447 27.073 101.429 22.4492ZM37.0531 51.2625C38.9732 54.1308 39.9982 57.5015 40 60.9492C39.9813 65.573 38.1329 70.004 34.8543 73.2766C31.5754 76.5494 27.1317 78.3979 22.4909 78.4166C19.0309 78.4148 15.6496 77.3898 12.774 75.472C9.89597 73.5525 7.65426 70.8253 6.33086 67.6363C5.00751 64.4473 4.6614 60.9388 5.33592 57.5541C6.01045 54.1693 7.67564 51.0589 10.1224 48.6167C12.5692 46.1744 15.6878 44.5101 19.0842 43.8358C22.4807 43.1614 26.0011 43.5076 29.2 44.8302C32.3988 46.1527 35.1313 48.3917 37.0531 51.2625ZM70.7975 36.972C67.9219 38.8899 64.5406 39.9149 61.0805 39.9166C56.4397 39.8979 51.9961 38.0494 48.7172 34.7766C45.4388 31.5043 43.5904 27.0735 43.5714 22.45C43.5731 19.002 44.5981 15.631 46.5183 12.7626C48.4402 9.89169 51.1727 7.65272 54.3715 6.3302C57.5703 5.00764 61.0908 4.66146 64.4873 5.33581C67.8837 6.01015 71.0023 7.67442 73.4491 10.1167C75.8958 12.5589 77.561 15.6693 78.2355 19.0541C78.91 22.4389 78.5639 25.9474 77.2406 29.1363C75.9172 32.3253 73.6755 35.0526 70.7975 36.972ZM147.774 46.4446C150.65 44.5268 154.031 43.5018 157.491 43.5C162.132 43.5187 166.575 45.3672 169.854 48.64C173.132 51.9118 174.98 56.3415 175 60.9641C174.999 64.4129 173.974 67.7849 172.053 70.6541C170.131 73.5249 167.399 75.7639 164.2 77.0864C161.001 78.409 157.481 78.7552 154.084 78.0808C150.688 77.4065 147.569 75.7422 145.122 73.2999C142.676 70.8577 141.01 67.7473 140.336 64.3625C139.661 60.9778 140.008 57.4693 141.331 54.2803C142.654 51.0913 144.896 48.3641 147.774 46.4446Z" stroke="white" stroke-width="10"/>
</svg>
