<svg width="22" height="30" viewBox="0 0 22 30" fill="none" xmlns="http://www.w3.org/2000/svg">
<path d="M16.4867 0H0V30H21.5442V5.10924L16.4867 0Z" fill="#E34947"/>
<path d="M8.66748 15.4287C9.02517 14.7144 9.44108 13.9077 9.76549 13.101L9.89858 12.7817C9.47435 11.1346 9.21649 9.81528 9.44108 8.95813C9.4993 8.73124 9.75717 8.59679 10.0317 8.59679H10.198H10.2313C10.6056 8.58839 10.7803 9.06738 10.7969 9.26065C10.8302 9.57158 10.6888 10.101 10.6888 10.101C10.6888 9.89091 10.6971 9.54637 10.564 9.25225C10.406 8.90771 10.2646 8.70603 10.1315 8.67242C10.0649 8.71444 9.9984 8.80687 9.97344 8.99175C9.92353 9.24385 9.91522 9.56318 9.91522 9.72284C9.91522 10.3027 10.0317 11.0674 10.2479 11.8573C10.2895 11.7312 10.3228 11.622 10.3561 11.5044C10.3977 11.3279 10.6888 10.185 10.6888 10.185C10.6888 10.185 10.6139 11.7144 10.5141 12.1766C10.4892 12.2775 10.4642 12.3699 10.4393 12.4707C10.8053 13.5044 11.3959 14.4203 12.0946 15.0842C12.3691 15.3447 12.7185 15.5548 13.0512 15.748C13.7749 15.6472 14.4403 15.5968 14.9976 15.5968C15.738 15.6052 16.2787 15.7144 16.4949 15.9329C16.6031 16.0422 16.6447 16.1682 16.6613 16.3111C16.6613 16.3699 16.6363 16.4959 16.628 16.5296C16.6363 16.4875 16.6363 16.2943 16.0457 16.101C15.5799 15.9497 14.7065 15.9581 13.6584 16.0674C14.8729 16.664 16.0457 16.9665 16.4201 16.7817C16.5116 16.7396 16.6197 16.58 16.6197 16.58C16.6197 16.58 16.5532 16.8825 16.5032 16.9581C16.445 17.0422 16.3286 17.1262 16.2121 17.1598C15.6215 17.3195 14.0826 16.9497 12.7434 16.1766C11.2461 16.3951 9.59912 16.8069 8.28484 17.2438C6.9872 19.538 6.01397 20.5884 5.22374 20.185L4.9326 20.0338C4.81615 19.9665 4.79951 19.7985 4.82446 19.664C4.91597 19.2102 5.4816 18.5212 6.6212 17.8321C6.74597 17.7565 7.28666 17.4623 7.28666 17.4623C7.28666 17.4623 6.87907 17.8573 6.78756 17.9329C5.88088 18.6808 5.2071 19.6304 5.22374 20.0002V20.0338C6.02229 19.9497 7.17852 18.3615 8.66748 15.4287ZM9.1333 15.6724C8.88376 16.143 8.64253 16.58 8.41794 16.9833C9.65735 16.4623 10.9966 16.1262 12.261 15.8825C12.0863 15.7649 11.9282 15.6388 11.7702 15.5044C11.0714 14.9077 10.5391 14.1598 10.1481 13.3699C9.9069 14.0422 9.61576 14.7481 9.1333 15.6724Z" fill="white"/>
<path opacity="0.2" d="M21.4939 5.12592H16.4697V0.050293L21.4939 5.12592Z" fill="black"/>
</svg>
