<svg width="30" height="30" viewBox="0 0 30 30" fill="none" xmlns="http://www.w3.org/2000/svg">
<g clip-path="url(#clip0_77_324)">
<path fill-rule="evenodd" clip-rule="evenodd" d="M1.875 26.25C1.875 26.7473 2.07254 27.2242 2.42418 27.5758C2.77581 27.9275 3.25272 28.125 3.75 28.125L26.25 28.125C26.7473 28.125 27.2242 27.9275 27.5758 27.5758C27.9275 27.2242 28.125 26.7473 28.125 26.25L28.125 3.75C28.125 3.25272 27.9275 2.77581 27.5758 2.42418C27.2242 2.07254 26.7473 1.875 26.25 1.875L3.75 1.875C3.25272 1.875 2.77581 2.07254 2.42418 2.42417C2.07255 2.7758 1.875 3.25272 1.875 3.75L1.875 26.25ZM30 26.25C30 27.2446 29.6049 28.1984 28.9017 28.9017C28.1984 29.6049 27.2446 30 26.25 30L3.75 30C2.75544 30 1.80161 29.6049 1.09835 28.9016C0.395088 28.1984 2.40888e-07 27.2446 3.27835e-07 26.25L2.29485e-06 3.75C2.3818e-06 2.75544 0.395091 1.80161 1.09835 1.09835C1.80162 0.395086 2.75544 -2.3818e-06 3.75 -2.29485e-06L26.25 -3.27835e-07C27.2446 -2.40888e-07 28.1984 0.395088 28.9017 1.09835C29.6049 1.80161 30 2.75544 30 3.75L30 26.25ZM21.5625 15.9375C21.8111 15.9375 22.0496 15.8387 22.2254 15.6629C22.4012 15.4871 22.5 15.2486 22.5 15C22.5 14.7514 22.4012 14.5129 22.2254 14.3371C22.0496 14.1613 21.8111 14.0625 21.5625 14.0625L10.7006 14.0625L14.7263 10.0387C14.8134 9.95158 14.8826 9.8481 14.9297 9.73422C14.9769 9.62033 15.0012 9.49827 15.0012 9.375C15.0012 9.25173 14.9769 9.12967 14.9297 9.01578C14.8826 8.90189 14.8134 8.79841 14.7263 8.71125C14.6391 8.62408 14.5356 8.55494 14.4217 8.50777C14.3078 8.46059 14.1858 8.43631 14.0625 8.43631C13.9392 8.43631 13.8172 8.46059 13.7033 8.50777C13.5894 8.55494 13.4859 8.62408 13.3988 8.71125L7.77375 14.3362C7.68644 14.4233 7.61718 14.5268 7.56992 14.6407C7.52265 14.7546 7.49833 14.8767 7.49833 15C7.49833 15.1233 7.52265 15.2454 7.56992 15.3593C7.61718 15.4732 7.68644 15.5767 7.77375 15.6637L13.3988 21.2887C13.4859 21.3759 13.5894 21.4451 13.7033 21.4922C13.8172 21.5394 13.9392 21.5637 14.0625 21.5637C14.1858 21.5637 14.3078 21.5394 14.4217 21.4922C14.5356 21.4451 14.6391 21.3759 14.7263 21.2887C14.8134 21.2016 14.8826 21.0981 14.9297 20.9842C14.9769 20.8703 15.0012 20.7483 15.0012 20.625C15.0012 20.5017 14.9769 20.3797 14.9297 20.2658C14.8826 20.1519 14.8134 20.0484 14.7263 19.9612L10.7006 15.9375L21.5625 15.9375Z" fill="#BBBBBB"/>
</g>
<defs>
<clipPath id="clip0_77_324">
<rect width="30" height="30" fill="white" transform="translate(30 30) rotate(-180)"/>
</clipPath>
</defs>
</svg>
