<svg width="146" height="137" viewBox="0 0 146 137" fill="none" xmlns="http://www.w3.org/2000/svg">
<path d="M71.6721 134.336L72.3384 134.941L73.0099 134.342L123.166 89.5973L123.171 89.592C133.198 80.5044 140.086 69.0215 143.069 56.3785C145.118 47.7066 144.481 42.3087 144.294 41.1168C142.178 17.9855 125.748 1.00272 104.997 1.00272C91.7587 1.00272 79.6069 7.84465 72.3868 18.8957C65.2647 7.71971 53.5839 1 40.5375 1C19.7901 1 3.35693 17.9821 1.24339 41.1129C1.05332 42.3102 0.41819 47.7081 2.46607 56.3787C5.44905 69.0189 12.337 80.5044 22.3636 89.5894L71.6721 134.336ZM135.823 54.6723L135.823 54.6726C133.193 65.8207 127.096 75.9905 118.189 84.0596C118.188 84.0605 118.187 84.0614 118.186 84.0623L72.3825 124.928L27.3654 84.0738L27.3648 84.0733C18.4403 75.9873 12.3446 65.8191 9.71228 54.6697L9.71225 54.6696C7.94512 47.1892 8.51295 42.7884 8.59374 42.2499L8.59584 42.2502L8.63667 41.9753L8.64099 41.9462L8.6436 41.9169C10.3781 22.3864 23.8811 8.44401 40.5375 8.44401C52.8564 8.44401 63.7468 16.0072 68.9351 28.289L71.4418 34.2307L72.3632 36.4146L73.2846 34.2307L75.7914 28.2889C75.7915 28.2888 75.7915 28.2887 75.7915 28.2886C80.8873 16.2198 92.3591 8.44673 105 8.44673C121.65 8.44673 135.159 22.3846 136.929 42.1788L136.931 42.1963L136.933 42.2138C136.933 42.2144 136.934 42.2165 136.934 42.2201C136.949 42.3135 137.125 43.4111 137.086 45.4337C137.045 47.5432 136.769 50.6648 135.823 54.6723Z" fill="white" stroke="white" stroke-width="2"/>
<path d="M45.5489 17.5444C29.9875 17.5444 17.3289 30.203 17.3289 45.7644C17.3289 47.822 18.9933 49.4864 21.0509 49.4864C23.1084 49.4864 24.7729 47.822 24.7729 45.7644C24.7729 34.3099 34.0944 24.9884 45.5489 24.9884C47.6065 24.9884 49.2709 23.3239 49.2709 21.2664C49.2709 19.2082 47.6031 17.5444 45.5489 17.5444Z" fill="white" stroke="white" stroke-width="2"/>
</svg>
