<svg width="152" height="136" viewBox="0 0 152 136" fill="none" xmlns="http://www.w3.org/2000/svg">
<g clip-path="url(#clip0_300_434)">
<path d="M108.378 95.5843C98.9667 88.0372 87.9307 85.3814 76.1543 85.3864C64.3779 85.3913 53.3418 88.0669 43.8859 95.6634C42.3654 91.0145 40.8996 86.4744 39.389 81.9541C38.4897 79.2736 37.4213 76.6425 36.6015 73.9372C36.1642 72.503 35.3791 72.0529 33.953 71.9886C29.2474 71.776 24.5667 71.3556 20.1394 69.5554C12.1841 66.3259 6.02756 60.7472 0.576624 54.3476C-0.0196495 53.6453 -0.178656 51.9786 0.248674 51.1725C0.725692 50.2724 2.12693 49.2634 3.076 49.308C6.117 49.4464 8.84992 48.5711 11.4586 47.3149C14.7928 45.7026 18.117 44.0161 21.2276 42.028C27.9406 37.7401 34.8474 36.8153 42.1915 40.1734C42.5245 40.3267 42.8822 40.4404 43.235 40.5393C43.3294 40.5641 43.4536 40.48 43.8164 40.3712C43.5331 39.7629 43.2897 39.1793 42.9965 38.6155C39.8015 32.4582 37.5754 26.0585 38.0922 18.9863C38.6586 11.2315 42.2164 5.1385 48.6661 0.816016C49.5654 0.212648 51.1754 0.143409 52.2686 0.464876C53.6847 0.880309 54.0922 2.32443 54.0375 3.80318C53.8835 7.82398 54.1319 11.7854 55.4984 15.643C57.3568 20.9002 62.2313 25.6629 69.3319 25.3216C74.0922 25.0941 78.8772 25.2326 83.6474 25.292C89.1779 25.3612 93.0934 22.7548 95.722 18.1109C97.7095 14.5946 98.3257 10.7073 98.3704 6.71616C98.3804 5.79132 98.4151 4.86154 98.3505 3.94166C98.2512 2.39367 98.6785 1.11275 100.115 0.361017C101.56 -0.395665 102.867 0.103844 104.095 0.979222C108.85 4.37193 112.1 8.82794 113.56 14.4857C115.389 21.5531 113.978 28.2841 111.18 34.8222C110.44 36.5532 109.575 38.2297 108.601 40.2772C110.733 39.5651 112.472 38.8084 114.296 38.4078C119.667 37.2307 124.686 38.2001 129.461 40.9548C133.625 43.3534 137.849 45.6927 142.216 47.6858C144.219 48.6007 146.659 48.5167 148.84 49.1101C149.928 49.4069 151.324 49.9905 151.762 50.851C152.199 51.7115 152.045 53.4623 151.414 54.1844C144.358 62.2457 136.537 69.2487 125.387 71.0589C122.947 71.4545 120.467 71.6029 117.998 71.7908C116.875 71.8749 116.313 72.2953 115.936 73.4328C113.491 80.782 110.942 88.1015 108.383 95.5744L108.378 95.5843Z" fill="white"/>
<path d="M78.0571 136C68.0745 135.778 60.1888 134.596 53.1478 130.446C50.2161 128.72 47.3838 126.514 45.1677 123.962C39.6273 117.592 39.9205 109.269 45.5304 102.948C50.4944 97.3599 56.9938 94.4568 64.1391 92.9434C76.164 90.4014 87.8807 91.1877 98.9913 96.8554C102.445 98.6161 105.446 100.99 107.766 104.13C112.407 110.397 112.214 118.072 107.22 124.071C102.37 129.892 95.831 132.865 88.6459 134.462C84.5615 135.372 80.3478 135.679 78.0571 136ZM91.99 116.841V116.831C93.1627 116.831 94.3404 116.9 95.5081 116.811C97.0832 116.692 98.3006 115.421 98.3205 113.903C98.3354 112.306 97.5602 110.99 95.9602 110.852C93.3963 110.629 90.7876 110.634 88.2186 110.822C86.6286 110.936 85.595 112.528 85.7292 113.987C85.8733 115.56 87.1503 116.757 88.8397 116.836C89.8882 116.885 90.9416 116.846 91.99 116.846V116.841ZM60.1789 116.836C61.3515 116.836 62.5292 116.895 63.6969 116.821C65.2671 116.717 66.5391 115.486 66.5689 113.972C66.6037 112.409 65.918 111.01 64.2882 110.871C61.6646 110.649 58.9963 110.644 56.3726 110.852C54.7776 110.975 53.8633 112.528 54.0621 114.101C54.2708 115.703 55.2397 116.658 56.8447 116.811C57.9478 116.915 59.0658 116.831 60.1739 116.836H60.1789Z" fill="white"/>
</g>
<defs>
<clipPath id="clip0_300_434">
<rect width="152" height="136" fill="white"/>
</clipPath>
</defs>
</svg>
